<svg xml:space="preserve" style="max-height: 500px" viewBox="76.52589641434263 165.286 537.0478087649402 277.298" y="0px" x="0px" xmlns:xlink="http://www.w3.org/1999/xlink" xmlns="http://www.w3.org/2000/svg" id="Layer_1" version="1.1" width="537.0478087649402" height="277.298">
<style type="text/css">
	.st0{fill:#6FA8DC;}
	.st1{fill:#BCD6EF;}
</style>
<g transform="translate(0.000000,683.000000) scale(0.100000,-0.100000)">
	<path d="M4757,3583c-4-3-7-255-7-560v-553h125h125v138l1,137l132-138l132-138l168,3l168,3l-175,180&#10;&#9;&#9;c-96,99-175,183-176,186c0,3,75,75,167,160l168,154l-163,3l-163,3l-127-120l-127-120l-3,334l-2,335h-118&#10;&#9;&#9;C4817,3590,4760,3587,4757,3583z" class="st0"/>
	<path d="M5774,3540c-17-11-39-38-49-59c-23-53-14-102,30-149c31-35,37-37,94-37c53,0,63,4,91,30c45,43,57,93,36,149&#10;&#9;&#9;C5945,3554,5846,3586,5774,3540z" class="st0"/>
	<path d="M880,3265v-105h-40h-40v-100v-100h40h40v-245v-245h125h125v245v245h70h70v100v100h-70h-69l-3,103l-3,102&#10;&#9;&#9;l-122,3l-123,3V3265z" class="st0"/>
	<path d="M2601,3175c-145-33-227-143-207-278c13-83,75-129,209-157c86-17,119-57,78-94c-36-32-143-19-219,26&#10;&#9;&#9;c-18,11-34,19-36,17c-9-12-86-158-86-163c0-4,28-20,63-36c171-78,372-58,473,47c47,48,64,92,64,166c0,62-19,105-64,144&#10;&#9;&#9;c-33,30-65,42-182,73c-23,5-47,17-54,25c-18,21-3,51,32,66c26,11,41,10,100-5c38-10,71-16,73-14c1,1,19,35,39,75&#10;&#9;&#9;c41,82,41,81-44,101C2758,3187,2668,3190,2601,3175z" class="st0"/>
	<path d="M3322,3175c-139-31-212-116-212-245c0-89,52-147,159-176c31-8,73-19,93-25c21-5,43-19,49-30c15-30-11-65-53-71&#10;&#9;&#9;c-40-7-131,16-174,42c-17,11-34,20-37,20c-6,0-87-155-87-166s129-62,185-74c110-23,252,5,330,64c47,36,85,117,85,183&#10;&#9;&#9;c0,126-56,177-246,223c-54,13-71,32-56,65c16,34,65,41,141,19c34-9,63-15,65-13s20,37,40,77l36,72l-24,9&#10;&#9;&#9;C3526,3184,3407,3194,3322,3175z" class="st0"/>
	<path d="M1610,3164c-148-53-230-181-230-357c0-86,2-96,38-167c64-129,166-190,314-190c75,0,130,21,181,68l27,26v-37&#10;&#9;&#9;v-37h120h120v345v345h-120h-120v-30c0-33-11-38-31-14C1863,3171,1702,3197,1610,3164z M1857,2954c106-51,113-212,11-274&#10;&#9;&#9;c-69-42-171-17-214,51C1571,2863,1715,3021,1857,2954z" class="st0"/>
	<path d="M3820,2914c0-277,4-303,61-368c72-82,222-120,388-99c143,18,219,62,263,151c22,45,23,59,26,305l4,257h-126&#10;&#9;&#9;h-125l-3-230l-3-230l-27-27c-23-22-36-27-81-27c-30-1-65,5-79,13c-47,25-52,50-56,284l-3,217h-120h-119V2914z" class="st0"/>
	<path d="M5730,2815v-345h120h120v345v345h-120h-120V2815z" class="st0"/>
</g>
<path d="M337,307.7c3.6-7,7.4-13.6,11.8-20c1.1-1.7,1.3-2.8-0.7-3.9c-3.9-2.1-7.5-4.9-11.5-6.9c-1.4-0.7-2.6-0.7-4,0&#10;&#9;c-1.5,0.8-3.1,1.5-4.7,2.2c-1.4,0.6-2.7,0.2-3.4-1.1c-0.8-1.3-0.3-2.5,0.8-3.3c1.2-0.9,2.5-1.6,4-2.5c-1.3-0.4-2.5-0.7-3.7-1&#10;&#9;c-1.2-0.4-2.1-1.2-2-2.5c0-1.5,1-2.2,2.3-2.5c2.3-0.6,4.4,0.5,6.7,1c0.2-0.5,0.3-0.9,0.4-1.2c0.3-1.5,1.3-2.4,2.8-2.4&#10;&#9;c1.6,0,2.3,1.2,2.8,2.5c0.3,0.9,0.7,1.8,0.6,2.7c-0.1,3.1,1.6,4.6,4.1,5.9c3.4,1.9,6.6,4,10.1,6.2c1.5-1.8,2.9-3.6,4.3-5.5&#10;&#9;c19.3-24.7,42.8-43.7,72.5-54.5c15.8-5.7,32.2-8.2,49-6.7c22.2,1.9,42.1,9.8,60,23c7.2,5.3,13.9,11.2,20.2,17.6&#10;&#9;c0.4,0.4,0.8,0.7,1.4,1.2c1.9-2.1,3.8-4,5.6-6c1.3-1.4,2.5-2.8,3.9-4.1c2.4-2.1,4.2-4.2,3.9-7.7c-0.1-1.7,0.5-3.7,3-3.8&#10;&#9;c1.8,0,2.7,1.4,2.7,4.2c0,0.2,0.1,0.4,0.1,0.8c1.8-0.6,3.7-2.2,5.3,0.1c1.7,2.5-0.9,3.5-2.1,4.9c0.1,0.6,0.5,0.7,0.8,0.9&#10;&#9;c1.3,0.7,2.3,1.7,1.7,3.2c-0.5,1.6-1.9,2.3-3.5,2.1c-2.1-0.2-4.2-0.3-6.3-0.7c-1.4-0.3-2.2,0.1-3.1,1.1c-2.3,2.6-4.7,5.3-7.1,7.8&#10;&#9;c-1,1-1.1,1.9-0.1,3.1c8.9,9.9,14.8,21.7,21,33.3c1,1.8,1.7,3.7,2,5.7c0.4,3.5-1.3,6.5-4.7,7.7c-2.3,0.8-5.1-0.4-6.9-3.2&#10;&#9;c-3.4-5.2-5.8-10.9-8.9-16.3c-14.9-25-35.6-43.4-62.8-54c-16.1-6.3-32.9-7.7-50-5.4c-20.4,2.8-38.6,11-55.1,23.1&#10;&#9;c-23.6,17.3-40.4,40.2-53.6,66c-3.6,7-6.6,14.2-8.9,21.7c-0.3,0.9-0.7,1.7-1.1,2.6c-1.9,4-4.9,5.6-8.2,4.2c-3.6-1.5-5.4-5.6-4.1-9.4&#10;&#9;C328.1,327.6,332,317.5,337,307.7z" class="st1"/>
<path d="M454.4,205.9c-3.8-0.8-5.2-2.3-5.5-5.8c-0.6-7.9-1.2-15.7-1.8-23.6c-0.3-3.9,3.1-6.9,7.5-7&#10;&#9;c4-0.1,6.6,2.4,6.6,6.6c0,7.3,1.2,14.5,1.4,21.7C462.9,203.4,460.4,205.9,454.4,205.9z" class="st1"/>
<path d="M487,207.2c-2.7-2.6-3.1-3.9-1.5-6.9c3-5.6,6-11.1,9.2-16.6c1.9-3.2,6.6-4.5,10-3c2.8,1.3,4.1,4.1,2.7,6.7&#10;&#9;c-3.1,6-6.3,11.9-9.6,17.7C495.9,208.4,491.3,209.3,487,207.2z" class="st1"/>
<path d="M399,194.6c-0.1-3.2,1.7-4.8,4.1-5.9c2.8-1.2,5.8-1.1,8.1,1.1c1.9,1.8,3.5,4,5.3,6c2.3,2.6,4.8,5.2,7,7.9&#10;&#9;c2.4,2.9,1.7,5.9-1.6,7.8c-3.9,2.2-7.4,1.9-10.4-1.4c-4-4.4-7.8-9-11.6-13.5C399.5,196.2,399.3,195.4,399,194.6z" class="st1"/>
<path d="M471.1,265.8c1.7-1.7,3.5-2.6,5.8-1.5c2.4,1.2,3,3.1,2.9,5.6c-0.5,7.5-7.6,14.5-14.5,14.3&#10;&#9;c-5.2-0.2-13-6.6-14.1-11.7c-0.4-2,0.6-4.3,2.5-5.3c2-1.1,4.2-0.8,5.8,0.9c1.3,1.3,2.4,2.9,3.8,4.2c2.2,2.1,4,1.8,5.4-0.9&#10;&#9;C469.6,269.6,470.2,267.7,471.1,265.8z" class="st1"/>
<path d="M422.1,271.3c4.1-0.6,7.4,0.6,9.5,4c2.3,3.6,2.2,7.5-0.1,11.1c-2.2,3.3-5.5,4.4-9.4,3.9&#10;&#9;c-4.1-0.5-7.4-4.4-7.5-8.7C414.2,275.9,416.8,272.4,422.1,271.3z" class="st1"/>
<path d="M500.3,276.7c-3.6-2.5-5-5.8-4.4-9.8c0.6-4.1,3-6.8,7.1-7.9c3.7-0.9,7.9,0.7,9.9,3.8c2.4,3.6,2.1,8.3-0.5,11.9&#10;&#9;c-2.2,2.8-6.3,4.1-10,2.9C501.7,277.3,501.1,277,500.3,276.7z" class="st1"/>
<path d="M518.3,215.7c0.8-1.9,2.1-3.1,3.3-4.4c1.7-1.8,3.5-3.6,5.1-5.5c2.5-2.7,7.9-3.1,10.5-0.8&#10;&#9;c1.9,1.7,2.3,3.6,1.1,5.9c-0.9,1.7-2.1,3.1-3.4,4.4c-1.4,1.4-2.7,2.8-4,4.3c-2.5,3.2-6.8,4.1-10.2,2.4&#10;&#9;C518.2,220.7,517.4,218.7,518.3,215.7z" class="st1"/>
<path d="M384,236.2c-3.8-1.8-7.4-3.5-10.9-5.4c-3.9-2.1-4.2-6-0.6-8.7c2.5-1.9,5.4-2.3,8.2-1c3.4,1.5,6.7,3.2,9.9,5&#10;&#9;c4,2.3,3.9,6.6-0.1,8.9C388.5,236.2,386.5,237,384,236.2z" class="st1"/>
</svg>